<svg width="345" height="347" viewBox="0 0 345 347" fill="none" xmlns="http://www.w3.org/2000/svg">
<g clip-path="url(#clip0_5909_6)">
<rect width="345" height="347" rx="172.5" fill="white"/>
<path d="M0 174.5V174.5C0 269.769 77.2309 348 172.5 348V348V348C267.769 348 345 269.769 345 174.5V174.5V174.5C345 79.2309 267.769 0.99997 172.5 0.99997V0.99997V0.99997C77.2309 0.99997 0 79.2309 0 174.5V174.5ZM275.746 92.6881C274.224 106.435 271.053 122.183 268.136 131.792C263.316 146.607 253.169 166.626 243.529 179.705C218.542 213.604 174.403 243.9 127.219 259.382C117.579 262.451 115.423 262.051 121.511 258.314C134.829 249.906 149.542 230.02 153.094 215.473C155.25 206.931 155.25 206.13 153.094 197.455C150.303 186.512 145.991 180.372 136.858 175.167C130.39 171.43 129.248 171.163 116.057 171.297C102.232 171.297 90.4357 173.699 76.864 179.305C70.1416 182.107 69.6342 180.639 75.4688 175.034C101.09 150.877 128.995 143.937 177.32 149.943C205.351 153.413 221.46 150.877 237.314 140.334C250.379 131.792 266.614 109.638 272.449 92.6881C273.59 89.2181 274.985 86.4154 275.493 86.4154C276 86.4154 276.127 89.2181 275.746 92.6881ZM205.478 122.05C212.708 126.454 213.849 135.93 208.142 142.736C204.971 146.473 203.575 147.14 198.502 147.14C193.428 147.14 192.033 146.473 188.862 142.736C178.842 130.858 192.414 113.908 205.478 122.05Z" fill="#FF0000"/>
</g>
<defs>
<clipPath id="clip0_5909_6">
<rect width="345" height="347" rx="172.5" fill="white"/>
</clipPath>
</defs>
</svg>
